<?xml version="1.0" encoding="UTF-8" standalone="no"?>
<svg
   xmlns:dc="http://purl.org/dc/elements/1.1/"
   xmlns:cc="http://creativecommons.org/ns#"
   xmlns:rdf="http://www.w3.org/1999/02/22-rdf-syntax-ns#"
   xmlns:svg="http://www.w3.org/2000/svg"
   xmlns="http://www.w3.org/2000/svg"
   xmlns:sodipodi="http://sodipodi.sourceforge.net/DTD/sodipodi-0.dtd"
   xmlns:inkscape="http://www.inkscape.org/namespaces/inkscape"
   width="30"
   height="40"
   version="1.1"
   id="svg849"
   sodipodi:docname="paper.svg"
   inkscape:version="0.92.4 (5da689c313, 2019-01-14)">
  <metadata
     id="metadata855">
    <rdf:RDF>
      <cc:Work
         rdf:about="">
        <dc:format>image/svg+xml</dc:format>
        <dc:type
           rdf:resource="http://purl.org/dc/dcmitype/StillImage" />
        <dc:title></dc:title>
      </cc:Work>
    </rdf:RDF>
  </metadata>
  <defs
     id="defs853" />
  <sodipodi:namedview
     pagecolor="#ffffff"
     bordercolor="#666666"
     borderopacity="1"
     objecttolerance="10"
     gridtolerance="10"
     guidetolerance="10"
     inkscape:pageopacity="0"
     inkscape:pageshadow="2"
     inkscape:window-width="1366"
     inkscape:window-height="705"
     id="namedview851"
     showgrid="false"
     inkscape:zoom="8.3559322"
     inkscape:cx="6.9675456"
     inkscape:cy="19.925963"
     inkscape:window-x="-8"
     inkscape:window-y="-8"
     inkscape:window-maximized="1"
     inkscape:current-layer="g910" />
  <g
     id="g910"
     transform="matrix(0.63354246,0,0,0.74949837,-0.01388708,11.466996)">
    <path
       sodipodi:nodetypes="cccccccccccccccccccccccccccccccccccccccccccccccccc"
       inkscape:connector-curvature="0"
       style="fill:#ffffff;stroke:#000000"
       id="path847"
       d="m 45.125,-3.168 c -0.391619,-0.153938 -0.811867,-0.221478 -1.232,-0.198 -0.57,0.04 -1.029,0.271 -1.302,0.65 -1.604,2.248 -0.320623,3.091377 -1.380623,6.503377 C 40.724377,5.364377 39.472,6.877 39,7.879 38.507,5.072 37.542702,-2.971649 37.758702,-6.931649 l 0.003,-0.064 c 0.15,-2.7510001 -0.189026,-3.507834 -0.221026,-3.719834 -0.238,-1.509 -2.279106,-3.098377 -3.235106,-3.541377 -0.966,-0.45 -1.023245,-0.369676 -2.375245,0.443324 -0.677,0.41 -0.266623,0.807887 -0.847623,7.181887 l 0.117675,1.464105 C 30.880377,-1.665544 31.544,4.723 30.637,6.067 29.614,4.187 28.206,-0.488 27.598,-5.109 c -0.425,-3.236 -2.109105,-6.803939 -2.276105,-7.364939 -0.35,-1.176 -1.83,-2.176 -3.295,-2.232 -1.22,-0.06 -1.980649,0.0813 -2.458649,1.159298 -0.894,0.995 0.379403,1.079019 1.367403,8.889018 C 21.405649,-0.939623 22.615,6.139 22.005,7.001 20.786,6.868 19.806562,5.973807 16.901562,-3.383193 c -0.816,-2.62 -1.307351,-2.604755 -1.557351,-2.949755 -0.494,-1.202 -1.932649,-0.932245 -3.436649,-0.827245 -0.126531,0.0088 -0.252422,0.02517 -0.377,0.049 -0.787,0.156 -1.9856228,0.521974 -1.6016228,3.866974 C 10.988939,1.392781 10.432,-0.759 11.55,2.546 l 0.023,0.066 c 0.669,1.98 1.302,3.85 1.89,5.925 1.385,4.9 0.846,7.94 0.84,7.975 -0.046,0.312 -0.143,0.503 -0.288,0.57 -0.06174,0.02667 -0.127813,0.04192 -0.195,0.045 -0.44,0.03 -1.098,-0.26 -1.437,-0.45 C 11.607,15.195 7.747,8.133 4.249,7.153 L 4.123,7.116 3.996,7.128 C 2.713,7.249 1.77,7.734 1.193,8.569 0.279,9.889 0.658,11.571 0.749,11.909 l 0.052,0.12 c 0.028,0.051 2.834,5.165 3.268,7.544 0.374,2.04 2.311,4.25 3.869,6.026 l 0.064,0.073 c 0.508,0.58 0.946,1.083 1.292,1.548 4.519,4.713 10.468245,8.437649 10.526245,8.470649 1.545708,0.919159 2.817357,0.804681 3.668781,1.781351 L 41.983,36.148 42.787,34.464 c 2.486,-10.402 1.967,-19.272 1.958,-19.33 0.01,-0.327 0.706,-3.483 1.266,-6.033 l 0.017,-0.065 c 1.117,-5.08 0.505,-7.4 0.772,-9.803 0.116,-1.028 -0.542,-1.972 -1.675,-2.401 z" />
    <path
       inkscape:connector-curvature="0"
       id="rect881"
       d="m 25.29983,13.865361 c 0,-1.091779 -0.509565,-1.983096 -1.13314,-1.983096 -0.623576,0 -1.132656,0.891317 -1.132656,1.983096 v 5.870441 c 0,1.091778 0.50908,1.983095 1.132656,1.983095 0.623575,0 1.13314,-0.891317 1.13314,-1.983095 z m -0.455678,0 v 5.870441 c 0,0.66383 -0.298311,1.185278 -0.677462,1.185278 -0.379151,0 -0.676979,-0.521448 -0.676979,-1.185278 v -5.870441 c 0,-0.663831 0.297828,-1.186128 0.676979,-1.186128 0.379151,0 0.677462,0.522297 0.677462,1.186128 z"
       style="color:#000000;font-style:normal;font-variant:normal;font-weight:normal;font-stretch:normal;font-size:medium;line-height:normal;font-family:sans-serif;font-variant-ligatures:normal;font-variant-position:normal;font-variant-caps:normal;font-variant-numeric:normal;font-variant-alternates:normal;font-feature-settings:normal;text-indent:0;text-align:start;text-decoration:none;text-decoration-line:none;text-decoration-style:solid;text-decoration-color:#000000;letter-spacing:normal;word-spacing:normal;text-transform:none;writing-mode:lr-tb;direction:ltr;text-orientation:mixed;dominant-baseline:auto;baseline-shift:baseline;text-anchor:start;white-space:normal;shape-padding:0;clip-rule:nonzero;display:inline;overflow:visible;visibility:visible;opacity:1;isolation:auto;mix-blend-mode:normal;color-interpolation:sRGB;color-interpolation-filters:linearRGB;solid-color:#000000;solid-opacity:1;vector-effect:none;fill:#000000;fill-opacity:0;fill-rule:nonzero;stroke:#000000;stroke-width:0.31471699;stroke-linecap:butt;stroke-linejoin:miter;stroke-miterlimit:4;stroke-dasharray:none;stroke-dashoffset:0;stroke-opacity:1;color-rendering:auto;image-rendering:auto;shape-rendering:auto;text-rendering:auto;enable-background:accumulate" />
    <path
       style="color:#000000;font-style:normal;font-variant:normal;font-weight:normal;font-stretch:normal;font-size:medium;line-height:normal;font-family:sans-serif;font-variant-ligatures:normal;font-variant-position:normal;font-variant-caps:normal;font-variant-numeric:normal;font-variant-alternates:normal;font-feature-settings:normal;text-indent:0;text-align:start;text-decoration:none;text-decoration-line:none;text-decoration-style:solid;text-decoration-color:#000000;letter-spacing:normal;word-spacing:normal;text-transform:none;writing-mode:lr-tb;direction:ltr;text-orientation:mixed;dominant-baseline:auto;baseline-shift:baseline;text-anchor:start;white-space:normal;shape-padding:0;clip-rule:nonzero;display:inline;overflow:visible;visibility:visible;opacity:1;isolation:auto;mix-blend-mode:normal;color-interpolation:sRGB;color-interpolation-filters:linearRGB;solid-color:#000000;solid-opacity:1;vector-effect:none;fill:#000000;fill-opacity:0;fill-rule:nonzero;stroke:#000000;stroke-width:0.31471699;stroke-linecap:butt;stroke-linejoin:miter;stroke-miterlimit:4;stroke-dasharray:none;stroke-dashoffset:0;stroke-opacity:1;color-rendering:auto;image-rendering:auto;shape-rendering:auto;text-rendering:auto;enable-background:accumulate"
       d="m 37.29983,13.865361 c 0,-1.091779 -0.509565,-1.983096 -1.13314,-1.983096 -0.623576,0 -1.132656,0.891317 -1.132656,1.983096 v 5.870441 c 0,1.091778 0.50908,1.983095 1.132656,1.983095 0.623575,0 1.13314,-0.891317 1.13314,-1.983095 z m -0.455678,0 v 5.870441 c 0,0.66383 -0.298311,1.185278 -0.677462,1.185278 -0.379151,0 -0.676979,-0.521448 -0.676979,-1.185278 v -5.870441 c 0,-0.663831 0.297828,-1.186128 0.676979,-1.186128 0.379151,0 0.677462,0.522297 0.677462,1.186128 z"
       id="path902"
       inkscape:connector-curvature="0" />
    <path
       inkscape:connector-curvature="0"
       id="path904"
       d="m 31.29983,13.865361 c 0,-1.091779 -0.509565,-1.983096 -1.13314,-1.983096 -0.623576,0 -1.132656,0.891317 -1.132656,1.983096 v 5.870441 c 0,1.091778 0.50908,1.983095 1.132656,1.983095 0.623575,0 1.13314,-0.891317 1.13314,-1.983095 z m -0.455678,0 v 5.870441 c 0,0.66383 -0.298311,1.185278 -0.677462,1.185278 -0.379151,0 -0.676979,-0.521448 -0.676979,-1.185278 v -5.870441 c 0,-0.663831 0.297828,-1.186128 0.676979,-1.186128 0.379151,0 0.677462,0.522297 0.677462,1.186128 z"
       style="color:#000000;font-style:normal;font-variant:normal;font-weight:normal;font-stretch:normal;font-size:medium;line-height:normal;font-family:sans-serif;font-variant-ligatures:normal;font-variant-position:normal;font-variant-caps:normal;font-variant-numeric:normal;font-variant-alternates:normal;font-feature-settings:normal;text-indent:0;text-align:start;text-decoration:none;text-decoration-line:none;text-decoration-style:solid;text-decoration-color:#000000;letter-spacing:normal;word-spacing:normal;text-transform:none;writing-mode:lr-tb;direction:ltr;text-orientation:mixed;dominant-baseline:auto;baseline-shift:baseline;text-anchor:start;white-space:normal;shape-padding:0;clip-rule:nonzero;display:inline;overflow:visible;visibility:visible;opacity:1;isolation:auto;mix-blend-mode:normal;color-interpolation:sRGB;color-interpolation-filters:linearRGB;solid-color:#000000;solid-opacity:1;vector-effect:none;fill:#000000;fill-opacity:0;fill-rule:nonzero;stroke:#000000;stroke-width:0.31471699;stroke-linecap:butt;stroke-linejoin:miter;stroke-miterlimit:4;stroke-dasharray:none;stroke-dashoffset:0;stroke-opacity:1;color-rendering:auto;image-rendering:auto;shape-rendering:auto;text-rendering:auto;enable-background:accumulate" />
  </g>
</svg>
